<?xml version="1.0" standalone="no"?>
<!DOCTYPE svg PUBLIC "-//W3C//DTD SVG 20010904//EN"
 "http://www.w3.org/TR/2001/REC-SVG-20010904/DTD/svg10.dtd">
<svg version="1.0" xmlns="http://www.w3.org/2000/svg"
 width="243.000000pt" height="83.000000pt" viewBox="0 0 243.000000 83.000000"
 preserveAspectRatio="xMidYMid meet">

<g transform="translate(0.000000,83.000000) scale(0.100000,-0.100000)"
fill="#000000" stroke="none">
<path d="M1160 752 c-32 -15 -59 -54 -74 -104 -5 -17 -36 -18 -463 -18 -252 0
-482 -3 -511 -6 l-52 -7 0 -154 c0 -118 4 -161 15 -183 33 -63 -33 -60 1160
-60 l1086 0 -3 175 -3 175 -28 27 -27 28 -454 3 -454 3 -6 32 c-7 37 -47 84
-83 98 -36 13 -64 11 -103 -9z m90 -22 c5 0 10 -12 12 -27 2 -22 9 -29 31 -31
26 -3 28 -6 25 -40 -3 -32 -7 -37 -30 -40 -22 -3 -28 -9 -28 -28 0 -21 -4 -24
-40 -24 -36 0 -40 3 -40 24 0 19 -6 25 -27 28 -24 3 -28 8 -31 39 -3 33 -1 37
27 42 25 5 31 12 31 31 0 25 21 38 48 30 8 -2 17 -4 22 -4z m-976 -176 c9 -4
16 -18 16 -34 0 -27 -3 -29 -42 -32 l-43 -3 35 -19 c60 -32 70 -45 70 -93 0
-38 -4 -46 -32 -64 -36 -22 -106 -22 -133 1 -20 16 -20 70 -1 70 8 0 18 -4 21
-10 9 -15 65 -12 65 3 0 7 -17 21 -39 30 -64 29 -78 98 -27 139 21 17 80 24
110 12z m193 -6 c12 -15 93 -224 93 -238 0 -6 -16 -10 -35 -10 -28 0 -38 5
-47 25 -8 18 -19 25 -40 25 -21 0 -32 -7 -40 -25 -9 -19 -19 -25 -45 -25 -22
0 -33 5 -33 14 0 8 21 66 46 130 40 100 49 116 69 116 12 0 27 -6 32 -12z
m219 -51 c17 -32 35 -59 39 -59 4 0 22 27 39 59 27 51 35 58 61 58 35 0 40
-16 51 -163 l7 -93 -39 3 c-37 3 -39 5 -42 41 -4 48 -14 47 -37 -3 -25 -56
-52 -54 -87 8 l-27 47 -1 -47 0 -48 -40 0 c-46 0 -44 -9 -31 142 5 53 12 102
16 108 4 6 19 10 33 8 21 -2 34 -15 58 -61z m292 -29 c3 -92 14 -115 51 -103
18 5 21 16 23 98 l3 92 35 0 35 0 3 -95 c3 -108 -4 -130 -54 -154 -43 -20 -76
-20 -114 -1 -50 26 -60 50 -60 151 0 50 3 94 7 98 4 4 21 6 38 4 l30 -3 3 -87z
m1185 65 c4 -2 7 -16 7 -29 0 -24 -2 -25 -40 -19 -53 9 -54 -12 -3 -40 115
-61 42 -192 -81 -145 -20 7 -26 16 -26 40 0 29 13 40 25 20 9 -15 75 -13 75 3
0 6 -17 21 -37 32 -21 11 -44 32 -53 48 -13 24 -13 30 0 54 20 36 58 54 95 47
17 -4 33 -8 38 -11z m-679 -60 c17 -34 33 -62 36 -62 3 -1 20 29 38 65 29 59
35 65 60 62 26 -3 27 -6 34 -78 4 -41 9 -94 12 -117 l6 -43 -35 0 c-33 0 -35
2 -35 33 0 56 -14 61 -38 12 -29 -60 -51 -59 -82 3 -21 42 -24 44 -27 22 -9
-64 -12 -70 -44 -70 l-31 0 7 103 c8 132 11 139 42 135 20 -2 32 -17 57 -65z
m377 -53 l47 -120 -33 0 c-25 0 -35 5 -40 20 -5 15 -15 20 -45 20 -30 0 -40
-5 -45 -20 -4 -14 -15 -20 -36 -20 -16 0 -29 3 -29 8 0 8 78 211 86 224 3 4
15 8 27 8 19 0 29 -17 68 -120z m129 -1 l0 -120 -32 3 -33 3 -3 104 c-1 58 0
111 2 118 3 7 19 13 36 13 l30 0 0 -121z"/>
<path d="M1776 415 c-3 -9 0 -15 9 -15 8 0 15 7 15 15 0 8 -4 15 -9 15 -5 0
-11 -7 -15 -15z"/>
<path d="M637 120 c3 -11 7 -20 8 -20 1 0 5 9 8 20 3 12 0 20 -8 20 -8 0 -11
-8 -8 -20z"/>
<path d="M690 110 c0 -22 5 -30 18 -30 12 0 13 3 5 8 -7 4 -11 18 -8 30 2 12
0 22 -6 22 -5 0 -9 -13 -9 -30z"/>
<path d="M744 125 c-9 -23 3 -45 23 -44 17 1 17 2 1 6 -21 5 -24 39 -5 46 9 4
9 6 -1 6 -7 1 -15 -6 -18 -14z"/>
<path d="M801 108 c1 -18 3 -25 6 -15 6 21 12 21 35 0 17 -15 18 -14 17 18 -1
19 -3 26 -6 17 -6 -22 -19 -23 -27 -3 -10 27 -26 16 -25 -17z"/>
<path d="M884 126 c-10 -26 4 -48 28 -44 17 2 23 10 23 28 0 18 -6 26 -23 28
-13 2 -25 -3 -28 -12z m46 -16 c0 -13 -7 -20 -20 -20 -13 0 -20 7 -20 20 0 13
7 20 20 20 13 0 20 -7 20 -20z"/>
<path d="M961 113 c-1 -25 3 -33 17 -33 11 0 13 3 6 8 -7 4 -14 18 -17 32 -4
21 -4 20 -6 -7z"/>
<path d="M1014 125 c-4 -8 -3 -22 0 -31 7 -19 48 -15 53 6 4 12 3 13 -5 1 -13
-18 -42 -7 -42 15 0 12 7 15 25 12 13 -3 22 -1 19 3 -9 15 -44 10 -50 -6z"/>
<path d="M1094 125 c-4 -8 -1 -22 6 -30 16 -19 50 -19 50 0 0 8 -5 15 -11 15
-5 0 -7 -4 -4 -10 3 -5 -1 -10 -10 -10 -21 0 -31 30 -14 41 10 6 11 9 1 9 -7
0 -15 -7 -18 -15z"/>
<path d="M1212 123 c-16 -29 -15 -33 8 -33 22 0 23 4 11 35 -8 19 -8 19 -19
-2z"/>
<path d="M1290 110 c0 -22 5 -30 18 -30 12 0 13 3 5 8 -7 4 -11 18 -8 30 2 12
0 22 -6 22 -5 0 -9 -13 -9 -30z"/>
<path d="M1394 125 c-7 -17 -34 -21 -34 -5 0 6 -4 10 -10 10 -5 0 -10 -12 -10
-27 0 -17 3 -23 8 -16 4 6 20 10 35 9 23 -3 27 1 27 20 0 27 -8 31 -16 9z"/>
<path d="M1460 128 c0 -9 6 -19 13 -21 9 -4 8 -8 -3 -16 -13 -9 -13 -11 3 -11
21 0 22 18 2 44 -12 16 -15 17 -15 4z"/>
<path d="M1522 115 c-7 -14 -12 -27 -12 -28 0 -1 11 -2 25 -2 14 0 23 5 21 10
-2 6 -9 9 -16 7 -7 -2 -9 5 -5 18 9 28 0 25 -13 -5z"/>
<path d="M1584 110 c1 -18 7 -25 21 -25 14 0 20 7 21 25 1 22 0 22 -3 3 -2
-13 -10 -23 -18 -23 -8 0 -16 10 -18 23 -3 19 -4 19 -3 -3z"/>
<path d="M1650 110 c0 -27 3 -31 23 -28 16 2 22 10 22 28 0 18 -6 26 -22 28
-20 3 -23 -1 -23 -28z m38 3 c-5 -25 -28 -28 -28 -4 0 12 6 21 16 21 9 0 14
-7 12 -17z"/>
<path d="M1720 110 c0 -22 5 -30 18 -30 12 0 13 3 5 8 -7 4 -11 18 -8 30 2 12
0 22 -6 22 -5 0 -9 -13 -9 -30z"/>
<path d="M1172 110 c0 -14 2 -19 5 -12 2 6 2 18 0 25 -3 6 -5 1 -5 -13z"/>
</g>
</svg>
